name analog
datacolumns 19
datarows 51
range 0.169 0.194
endheader
time	ground_force_vx	ground_force_vy	ground_force_vz	ground_force_px	ground_force_py	ground_force_pz	l_ground_force_vx	l_ground_force_vy	l_ground_force_vz	l_ground_force_px	l_ground_force_py	l_ground_force_pz	ground_torque_x	ground_torque_y	ground_torque_z	l_ground_torque_x	l_ground_torque_y	l_ground_torque_z
0.169	-0.0	-0.0	-0.0	-0.0	-0.0	-0.0	-3.903274536132813	3.098740339279175	-736.169677734375	-0.0	-0.0	-0.0	-0.0	-0.0	-0.0	230686.046875	-1102.2864990234375	-2609.62255859375
0.1695	-0.0	-0.0	-0.0	-0.0	-0.0	-0.0	-4.203395366668701	3.0207080841064453	-738.5274658203125	-0.0	-0.0	-0.0	-0.0	-0.0	-0.0	231829.21875	-1102.5162353515625	-2652.4921875
0.17	-0.0	-0.0	-0.0	-0.0	-0.0	-0.0	-3.89536190032959	2.9908430576324463	-741.2488403320312	-0.0	-0.0	-0.0	-0.0	-0.0	-0.0	232559.046875	-1132.28759765625	-2607.293212890625
0.1705	-0.0	-0.0	-0.0	-0.0	-0.0	-0.0	-3.659336805343628	2.846799373626709	-742.28125	-0.0	-0.0	-0.0	-0.0	-0.0	-0.0	232829.484375	-1253.9920654296875	-2463.158447265625
0.171	-0.0	-0.0	-0.0	-0.0	-0.0	-0.0	-2.725525379180908	2.6101319789886475	-741.1891479492188	-0.0	-0.0	-0.0	-0.0	-0.0	-0.0	232715.40625	-1510.9112548828125	-2207.728271484375
0.1715	-0.0	-0.0	-0.0	-0.0	-0.0	-0.0	-2.547640562057495	2.6115689277648926	-740.883544921875	-0.0	-0.0	-0.0	-0.0	-0.0	-0.0	232420.84375	-1494.888916015625	-2096.767822265625
0.17200000000000001	-0.0	-0.0	-0.0	-0.0	-0.0	-0.0	-1.7175524234771729	2.5687170028686523	-740.6474609375	-0.0	-0.0	-0.0	-0.0	-0.0	-0.0	232123.28125	-1635.86669921875	-1918.0152587890625
0.17250000000000001	-0.0	-0.0	-0.0	-0.0	-0.0	-0.0	-1.0089505910873413	2.0216307640075684	-737.6612548828125	-0.0	-0.0	-0.0	-0.0	-0.0	-0.0	231483.046875	-1527.0830078125	-1671.248291015625
0.17300000000000001	-0.0	-0.0	-0.0	-0.0	-0.0	-0.0	-0.6166293025016785	1.3639137744903564	-736.4180297851562	-0.0	-0.0	-0.0	-0.0	-0.0	-0.0	230668.53125	-1417.6968994140625	-1547.4827880859375
0.17350000000000002	-0.0	-0.0	-0.0	-0.0	-0.0	-0.0	-1.5135648250579834	1.080980896949768	-735.4429321289062	-0.0	-0.0	-0.0	-0.0	-0.0	-0.0	229822.125	-991.059326171875	-1858.40185546875
0.17400000000000002	-0.0	-0.0	-0.0	-0.0	-0.0	-0.0	-2.3346848487854004	0.6995612382888794	-735.4879150390625	-0.0	-0.0	-0.0	-0.0	-0.0	-0.0	229828.03125	-677.5581665039062	-2241.11767578125
0.17450000000000002	-0.0	-0.0	-0.0	-0.0	-0.0	-0.0	-2.820842742919922	0.4691367149353027	-737.29345703125	-0.0	-0.0	-0.0	-0.0	-0.0	-0.0	230302.078125	-594.5528564453125	-2401.175048828125
0.17500000000000002	-0.0	-0.0	-0.0	-0.0	-0.0	-0.0	-2.7000677585601807	0.6568260788917542	-739.2081909179688	-0.0	-0.0	-0.0	-0.0	-0.0	-0.0	230720.046875	-585.0552368164062	-2400.7880859375
0.17550000000000002	-0.0	-0.0	-0.0	-0.0	-0.0	-0.0	-2.649321317672729	0.4693934321403503	-741.9112548828125	-0.0	-0.0	-0.0	-0.0	-0.0	-0.0	231361.9375	-625.4774780273438	-2313.446533203125
0.176	-0.0	-0.0	-0.0	-0.0	-0.0	-0.0	-2.61781644821167	0.0999903678894043	-744.9150390625	-0.0	-0.0	-0.0	-0.0	-0.0	-0.0	232164.734375	-483.5174560546875	-2441.009521484375
0.1765	-0.0	-0.0	-0.0	-0.0	-0.0	-0.0	-2.2525997161865234	-0.0884169936180114	-749.0055541992188	-0.0	-0.0	-0.0	-0.0	-0.0	-0.0	233064.078125	-646.513671875	-2412.0517578125
0.177	-0.0	-0.0	-0.0	-0.0	-0.0	-0.0	-1.4697736501693726	-0.2649650573730469	-750.525146484375	-0.0	-0.0	-0.0	-0.0	-0.0	-0.0	233711.265625	-696.4537963867188	-2205.0185546875
0.1775	-0.0	-0.0	-0.0	-0.0	-0.0	-0.0	-1.4610586166381836	-0.3751709461212158	-752.919921875	-0.0	-0.0	-0.0	-0.0	-0.0	-0.0	233757.09375	-905.337158203125	-2090.4658203125
0.178	-0.0	-0.0	-0.0	-0.0	-0.0	-0.0	-0.5702641010284424	-0.6056908369064331	-753.3197631835938	-0.0	-0.0	-0.0	-0.0	-0.0	-0.0	233374.140625	-1157.36669921875	-1977.47265625
0.1785	-0.0	-0.0	-0.0	-0.0	-0.0	-0.0	-0.2977219223976135	-0.7130826711654663	-753.793701171875	-0.0	-0.0	-0.0	-0.0	-0.0	-0.0	233224.65625	-1287.4776611328125	-1845.9647216796875
0.179	-0.0	-0.0	-0.0	-0.0	-0.0	-0.0	0.2661323547363281	-1.4884018898010254	-754.0187377929688	-0.0	-0.0	-0.0	-0.0	-0.0	-0.0	233083.890625	-1464.0631103515625	-1703.94091796875
0.1795	-0.0	-0.0	-0.0	-0.0	-0.0	-0.0	0.7063658833503723	-1.816494345664978	-753.4923095703125	-0.0	-0.0	-0.0	-0.0	-0.0	-0.0	232550.015625	-1537.274658203125	-1669.4324951171875
0.18	-0.0	-0.0	-0.0	-0.0	-0.0	-0.0	1.1779992580413818	-2.3914356231689453	-751.918212890625	-0.0	-0.0	-0.0	-0.0	-0.0	-0.0	231590.546875	-1767.63916015625	-1548.8525390625
0.1805	-0.0	-0.0	-0.0	-0.0	-0.0	-0.0	1.6703420877456665	-3.152402400970459	-749.7100219726562	-0.0	-0.0	-0.0	-0.0	-0.0	-0.0	230414.140625	-1941.0247802734373	-1504.2388916015625
0.181	-0.0	-0.0	-0.0	-0.0	-0.0	-0.0	1.41937255859375	-3.758334636688232	-747.7357177734375	-0.0	-0.0	-0.0	-0.0	-0.0	-0.0	229525.546875	-2066.138671875	-1512.8111572265625
0.1815	-0.0	-0.0	-0.0	-0.0	-0.0	-0.0	1.733466386795044	-4.309905529022217	-747.9308471679688	-0.0	-0.0	-0.0	-0.0	-0.0	-0.0	228920.703125	-2124.092529296875	-1508.1934814453125
0.182	-0.0	-0.0	-0.0	-0.0	-0.0	-0.0	2.008788824081421	-4.719682693481445	-747.1840209960938	-0.0	-0.0	-0.0	-0.0	-0.0	-0.0	228631.4375	-2503.56201171875	-1510.181884765625
0.1825	-0.0	-0.0	-0.0	-0.0	-0.0	-0.0	2.797181844711304	-4.797867774963379	-746.4716796875	-0.0	-0.0	-0.0	-0.0	-0.0	-0.0	228142.046875	-2910.950439453125	-1333.811767578125
0.183	-0.0	-0.0	-0.0	-0.0	-0.0	-0.0	4.143472194671631	-4.956873416900635	-744.9445190429688	-0.0	-0.0	-0.0	-0.0	-0.0	-0.0	227922.203125	-3311.84228515625	-1104.553955078125
0.1835	-0.0	-0.0	-0.0	-0.0	-0.0	-0.0	5.196621894836426	-4.493616580963135	-745.3809204101562	-0.0	-0.0	-0.0	-0.0	-0.0	-0.0	227501.171875	-3635.422119140625	-911.7901000976562
0.184	-0.0	-0.0	-0.0	-0.0	-0.0	-0.0	5.784512519836426	-4.894112586975098	-746.250732421875	-0.0	-0.0	-0.0	-0.0	-0.0	-0.0	227088.828125	-3723.563720703125	-766.6287841796875
0.1845	-0.0	-0.0	-0.0	-0.0	-0.0	-0.0	5.83290958404541	-5.278489589691162	-745.9471435546875	-0.0	-0.0	-0.0	-0.0	-0.0	-0.0	226797.265625	-3564.3544921875	-754.01953125
0.185	-0.0	-0.0	-0.0	-0.0	-0.0	-0.0	5.614931583404541	-5.564266204833984	-746.423583984375	-0.0	-0.0	-0.0	-0.0	-0.0	-0.0	226578.28125	-3479.510986328125	-941.3529663085938
0.1855	-0.0	-0.0	-0.0	-0.0	-0.0	-0.0	4.580753326416016	-5.952672958374023	-746.379150390625	-0.0	-0.0	-0.0	-0.0	-0.0	-0.0	226747.40625	-3457.961669921875	-1100.0186767578125
0.186	-0.0	-0.0	-0.0	-0.0	-0.0	-0.0	4.368185997009277	-6.112180709838867	-747.8958129882812	-0.0	-0.0	-0.0	-0.0	-0.0	-0.0	226813.609375	-3396.034423828125	-1216.33203125
0.1865	-0.0	-0.0	-0.0	-0.0	-0.0	-0.0	4.367661952972412	-6.271509170532227	-749.4210205078125	-0.0	-0.0	-0.0	-0.0	-0.0	-0.0	226597.328125	-3357.959228515625	-1147.96826171875
0.187	-0.0	-0.0	-0.0	-0.0	-0.0	-0.0	4.692192554473877	-6.297134399414063	-746.65673828125	-0.0	-0.0	-0.0	-0.0	-0.0	-0.0	226447.25	-3192.2060546875	-1128.66552734375
0.1875	-0.0	-0.0	-0.0	-0.0	-0.0	-0.0	5.014496803283691	-6.35726261138916	-747.1495361328125	-0.0	-0.0	-0.0	-0.0	-0.0	-0.0	225887.03125	-3153.882568359375	-1046.9757080078125
0.188	-0.0	-0.0	-0.0	-0.0	-0.0	-0.0	5.202851295471191	-6.253080368041992	-746.2576904296875	-0.0	-0.0	-0.0	-0.0	-0.0	-0.0	225516.21875	-2957.910888671875	-945.610107421875
0.1885	-0.0	-0.0	-0.0	-0.0	-0.0	-0.0	5.264973640441895	-6.3083577156066895	-745.6041870117188	-0.0	-0.0	-0.0	-0.0	-0.0	-0.0	225188.828125	-3078.18359375	-855.87158203125
0.189	-0.0	-0.0	-0.0	-0.0	-0.0	-0.0	5.881539821624756	-5.961787223815918	-743.2042846679688	-0.0	-0.0	-0.0	-0.0	-0.0	-0.0	224656.390625	-3377.65576171875	-667.74853515625
0.1895	-0.0	-0.0	-0.0	-0.0	-0.0	-0.0	6.537655830383301	-5.928571224212647	-744.0327758789062	-0.0	-0.0	-0.0	-0.0	-0.0	-0.0	224471.796875	-3399.30908203125	-548.736572265625
0.19	-0.0	-0.0	-0.0	-0.0	-0.0	-0.0	7.313713073730469	-5.59992790222168	-744.793212890625	-0.0	-0.0	-0.0	-0.0	-0.0	-0.0	224531.6875	-3368.156494140625	-281.0879211425781
0.1905	-0.0	-0.0	-0.0	-0.0	-0.0	-0.0	7.976753711700439	-5.734239101409912	-743.45947265625	-0.0	-0.0	-0.0	-0.0	-0.0	-0.0	224323.09375	-3221.27587890625	-62.70044708251953
0.191	-0.0	-0.0	-0.0	-0.0	-0.0	-0.0	7.647961616516113	-5.829231262207031	-743.9046020507812	-0.0	-0.0	-0.0	-0.0	-0.0	-0.0	223949.359375	-2994.826171875	-197.3916931152344
0.1915	-0.0	-0.0	-0.0	-0.0	-0.0	-0.0	6.578084468841553	-5.830079078674316	-742.3199462890625	-0.0	-0.0	-0.0	-0.0	-0.0	-0.0	223496.125	-2407.9501953125	-375.4496154785156
0.192	-0.0	-0.0	-0.0	-0.0	-0.0	-0.0	5.478855609893799	-6.382094383239746	-742.6304931640625	-0.0	-0.0	-0.0	-0.0	-0.0	-0.0	223503.796875	-1978.2218017578125	-616.1377563476562
0.1925	-0.0	-0.0	-0.0	-0.0	-0.0	-0.0	4.359621047973633	-6.7210798263549805	-744.740234375	-0.0	-0.0	-0.0	-0.0	-0.0	-0.0	223653.796875	-1380.2703857421875	-889.792724609375
0.193	-0.0	-0.0	-0.0	-0.0	-0.0	-0.0	3.3636703491210938	-6.800769805908203	-745.1963500976562	-0.0	-0.0	-0.0	-0.0	-0.0	-0.0	223770.6875	-957.8717041015624	-1026.0523681640625
0.1935	-0.0	-0.0	-0.0	-0.0	-0.0	-0.0	3.0680317878723145	-6.915836811065674	-745.552734375	-0.0	-0.0	-0.0	-0.0	-0.0	-0.0	223565.59375	-566.134765625	-1275.5
0.194	-0.0	-0.0	-0.0	-0.0	-0.0	-0.0	1.8286969661712649	-7.038273811340332	-746.7142333984375	-0.0	-0.0	-0.0	-0.0	-0.0	-0.0	223746.015625	152.30181884765625	-1436.834716796875
